# xmcd
#
# Track frame offsets:
#	150
#	9788
#	24531
#	39519
#	59384
#	69374
#	82421
#	94451
#	112470
#	125466
#	141912
#	153542
#	172721
#	191060
#	202649
#	221001
#	233129
#	248758
#	261952
#	274262
#
# Disc length: 3841 seconds
#
# Revision: 2
# Processed by: cddbd v1.4PL0 Copyright (c) Steve Scherf et al.
# Submitted via: EasyCDDAExtractor 5.0.2.1
#
DISCID=220eff14
DTITLE=Tim Maia - oOo
DYEAR=1900
DGENRE=Rock/Balada
TTITLE0=Primavera
TTITLE1=Chocolate
TTITLE2=Azul da Cor do Mar
TTITLE3=O Descobridor do Sete Mares
TTITLE4=Coronel Antonio Bento
TTITLE5=Nao Vou Ficar
TTITLE6=Musica no Ar
TTITLE7=Voce Fingiu
TTITLE8=Compadre
TTITLE9=Reu Confesso
TTITLE10=O Que Me Importa
TTITLE11=Gostava Tanto de Voce
TTITLE12=Voce
TTITLE13=Nao Quero Dinheiro
TTITLE14=Eu Amo Voce
TTITLE15=A Festa dos Santos Reis
TTITLE16=Nosso Adeus
TTITLE17=Preciso Ser Amado
TTITLE18=Preciso Aprender a Ser So
TTITLE19=These Are the Song
EXTD=
EXTT0=
EXTT1=
EXTT2=
EXTT3=
EXTT4=
EXTT5=
EXTT6=
EXTT7=
EXTT8=
EXTT9=
EXTT10=
EXTT11=
EXTT12=
EXTT13=
EXTT14=
EXTT15=
EXTT16=
EXTT17=
EXTT18=
EXTT19=
PLAYORDER=
